<svg width="64" height="64" viewBox="0 0 64 64" fill="none" xmlns="http://www.w3.org/2000/svg">
  <g transform="rotate(-6 32 32)">
    <rect x="6" y="6" width="52" height="52" rx="14" fill="#c65f4b" stroke="white" stroke-width="4" class="bg-rect"/>
    
    <g transform="translate(14 14) scale(1.5)" stroke="white" stroke-width="2" stroke-linecap="round" stroke-linejoin="round" class="ship-icon">
      <path d="M12 10.189V14"/>
      <path d="M12 2v3"/>
      <path d="M19 13V7a2 2 0 0 0-2-2H7a2 2 0 0 0-2 2v6"/>
      <path d="M19.38 20A11.6 11.6 0 0 0 21 14l-8.188-3.639a2 2 0 0 0-1.624 0L3 14a11.6 11.6 0 0 0 2.81 7.76"/>
      <path d="M2 21c.6.5 1.2 1 2.5 1 2.5 0 2.5-2 5-2 1.3 0 1.9.5 2.5 1s1.2 1 2.5 1c2.5 0 2.5-2 5-2 1.3 0 1.9.5 2.5 1"/>
    </g>
  </g>

  <style>
    @media (prefers-color-scheme: dark) {
      .bg-rect { fill: #ffcf54; stroke: #1e1a1b; }
      .ship-icon { stroke: #2c2a25; }
    }
  </style>
</svg>
